<svg width="324" height="60" viewBox="0 0 324 60" fill="none" xmlns="http://www.w3.org/2000/svg">
<path d="M102.954 45.5503H118.115V49H98.7134V17.0078H102.954V45.5503ZM132.156 49.4395C128.933 49.4395 126.311 48.3848 124.29 46.2754C122.268 44.1514 121.257 41.3169 121.257 37.772V37.0249C121.257 34.6665 121.704 32.5645 122.598 30.7188C123.506 28.8584 124.766 27.4082 126.377 26.3682C128.003 25.3135 129.761 24.7861 131.65 24.7861C134.741 24.7861 137.144 25.8042 138.857 27.8403C140.571 29.8765 141.428 32.7915 141.428 36.5854V38.2773H125.322C125.381 40.6211 126.062 42.5181 127.366 43.9683C128.684 45.4038 130.354 46.1216 132.375 46.1216C133.811 46.1216 135.027 45.8286 136.023 45.2427C137.019 44.6567 137.891 43.8804 138.638 42.9136L141.121 44.8472C139.128 47.9087 136.14 49.4395 132.156 49.4395ZM131.65 28.126C130.01 28.126 128.633 28.7266 127.52 29.9277C126.406 31.1143 125.718 32.7842 125.454 34.9375H137.363V34.6299C137.246 32.5645 136.689 30.9678 135.693 29.8398C134.697 28.6973 133.35 28.126 131.65 28.126ZM151.667 19.4688V25.2256H156.106V28.3677H151.667V43.1113C151.667 44.0635 151.865 44.7812 152.261 45.2646C152.656 45.7334 153.33 45.9678 154.282 45.9678C154.751 45.9678 155.396 45.8799 156.216 45.7041V49C155.146 49.293 154.106 49.4395 153.096 49.4395C151.279 49.4395 149.91 48.8901 148.987 47.7915C148.064 46.6929 147.603 45.1328 147.603 43.1113V28.3677H143.274V25.2256H147.603V19.4688H151.667ZM166.96 17.0078L177.419 43.1113L187.878 17.0078H193.35V49H189.131V36.5415L189.526 23.0942L179.023 49H175.793L165.312 23.1602L165.73 36.5415V49H161.511V17.0078H166.96ZM210.027 49.4395C206.804 49.4395 204.182 48.3848 202.161 46.2754C200.139 44.1514 199.128 41.3169 199.128 37.772V37.0249C199.128 34.6665 199.575 32.5645 200.469 30.7188C201.377 28.8584 202.637 27.4082 204.248 26.3682C205.874 25.3135 207.632 24.7861 209.521 24.7861C212.612 24.7861 215.015 25.8042 216.729 27.8403C218.442 29.8765 219.299 32.7915 219.299 36.5854V38.2773H203.193C203.252 40.6211 203.933 42.5181 205.237 43.9683C206.555 45.4038 208.225 46.1216 210.247 46.1216C211.682 46.1216 212.898 45.8286 213.894 45.2427C214.89 44.6567 215.762 43.8804 216.509 42.9136L218.992 44.8472C217 47.9087 214.011 49.4395 210.027 49.4395ZM209.521 28.126C207.881 28.126 206.504 28.7266 205.391 29.9277C204.277 31.1143 203.589 32.7842 203.325 34.9375H215.234V34.6299C215.117 32.5645 214.561 30.9678 213.564 29.8398C212.568 28.6973 211.221 28.126 209.521 28.126ZM231.56 38.9146L232.175 43.1333L233.076 39.332L239.404 17.0078H242.964L249.138 39.332L250.017 43.1992L250.698 38.8926L255.664 17.0078H259.905L252.148 49H248.303L241.711 25.687L241.206 23.248L240.701 25.687L233.867 49H230.022L222.288 17.0078H226.506L231.56 38.9146ZM262.19 36.8931C262.19 34.564 262.644 32.4692 263.552 30.6089C264.475 28.7485 265.75 27.313 267.375 26.3022C269.016 25.2915 270.884 24.7861 272.979 24.7861C276.216 24.7861 278.831 25.9067 280.823 28.1479C282.83 30.3892 283.833 33.3701 283.833 37.0908V37.3765C283.833 39.6909 283.386 41.771 282.493 43.6167C281.614 45.4478 280.347 46.876 278.691 47.9014C277.051 48.9268 275.161 49.4395 273.022 49.4395C269.8 49.4395 267.185 48.3188 265.178 46.0776C263.186 43.8364 262.19 40.8701 262.19 37.1787V36.8931ZM266.277 37.3765C266.277 40.0132 266.885 42.1299 268.101 43.7266C269.331 45.3232 270.972 46.1216 273.022 46.1216C275.088 46.1216 276.729 45.3159 277.944 43.7046C279.16 42.0786 279.768 39.8081 279.768 36.8931C279.768 34.2856 279.146 32.1763 277.9 30.5649C276.67 28.939 275.029 28.126 272.979 28.126C270.972 28.126 269.353 28.9243 268.123 30.521C266.892 32.1177 266.277 34.4028 266.277 37.3765ZM300.422 28.873C299.807 28.7705 299.141 28.7192 298.423 28.7192C295.757 28.7192 293.948 29.8545 292.996 32.125V49H288.931V25.2256H292.886L292.952 27.9722C294.285 25.8481 296.174 24.7861 298.621 24.7861C299.412 24.7861 300.012 24.8887 300.422 25.0938V28.873ZM310.815 37.9917L308.267 40.6504V49H304.202V15.25H308.267V35.6626L310.442 33.0479L317.847 25.2256H322.791L313.54 35.1572L323.867 49H319.099L310.815 37.9917Z" fill="white"/>
<path d="M46 30V60H49.7342H53.4684V58.144V56.2782L54.4557 56.1113C54.9873 56.0229 55.8608 55.8462 56.3797 55.7185C56.8987 55.5908 57.3544 55.5123 57.3924 55.5417C57.4304 55.5712 57.9494 56.3077 58.5443 57.1718C59.1392 58.036 59.6709 58.743 59.7089 58.7529C59.8481 58.7823 70.7975 54.2553 70.8101 54.1669C70.8101 54.1178 70.2911 53.3322 69.6582 52.419C69.038 51.5057 68.5316 50.73 68.557 50.6907C68.5823 50.6514 69.3418 50.0524 70.2658 49.3552L71.9367 48.0884L73.8734 49.0507C74.9367 49.581 75.9367 50.072 76.076 50.1506C76.3418 50.2782 76.4557 50.1506 79.7342 46.1538C81.7215 43.7283 83.076 41.9804 83.0127 41.9313C82.9494 41.8822 81.8987 41.3519 80.6835 40.7529C79.4684 40.144 78.443 39.6334 78.4177 39.6137C78.3924 39.5941 78.5823 39.0147 78.8354 38.3273C79.0886 37.6301 79.3671 36.7856 79.4557 36.4321L79.6203 35.7938L82.6203 35.8331L85.6203 35.8723V35.1948C85.6203 34.8216 85.7089 32.7005 85.8101 30.491C85.9114 28.2717 86 26.3666 86 26.239C86 26.0229 85.9747 26.0229 84.4557 26.0131C83.5949 26.0033 82.1266 25.9738 81.1899 25.9345L79.481 25.8756L79.3165 25.2864C79.2278 24.9624 78.9494 24.1768 78.6962 23.5385C78.443 22.91 78.2658 22.3699 78.2911 22.3502C78.3165 22.3306 79.6203 21.7709 81.1899 21.1129C82.7595 20.4452 84.0506 19.8953 84.076 19.8854C84.1139 19.856 78.1772 11.4697 78.038 11.3617C77.962 11.3028 76.6835 11.7938 74.8734 12.5696C73.1899 13.2766 71.7722 13.8462 71.7089 13.8265C71.6456 13.8069 70.9241 13.2864 70.0886 12.6678L68.5696 11.5385L70.3797 9.18167C71.3797 7.88543 72.1899 6.77578 72.1899 6.71686C72.2025 6.61866 61.6456 1.71849 61.4177 1.71849C61.3544 1.71849 60.4684 2.81833 59.443 4.17348C57.7722 6.35352 57.5316 6.62848 57.2532 6.61866C57.0886 6.60884 56.1772 6.4419 55.2405 6.25532L53.5316 5.91162L53.4937 2.95581L53.4684 -2.47732e-06H49.7342H46V30ZM51.1899 4.59574V7.43371L52.962 7.69885C53.9367 7.83633 55.5949 8.17021 56.6329 8.43535L58.5316 8.91653L59.8101 7.22749C61.9114 4.4779 62.1392 4.19312 62.2405 4.19312C62.3544 4.20294 68.4051 6.95253 68.8354 7.19803C69.0506 7.32569 68.962 7.47299 67.3418 9.59411C66.3924 10.8412 65.6203 11.9018 65.6203 11.9607C65.6203 12.0098 66.038 12.3142 66.5443 12.6285C67.5823 13.2864 69.5823 14.7987 70.5063 15.6432L71.1392 16.2128L74.038 14.9853C75.6456 14.3077 76.9873 13.748 77.038 13.748C77.1266 13.748 80.8861 19.0409 80.8608 19.1293C80.8481 19.1588 79.6203 19.7087 78.1392 20.3372C76.6456 20.9754 75.4177 21.5352 75.3924 21.5843C75.3797 21.6334 75.5696 22.0753 75.8101 22.5761C76.4177 23.784 77.0633 25.5516 77.3291 26.7299L77.5443 27.6923H78.962C79.7342 27.6923 81.1013 27.7218 82 27.761L83.6203 27.82L83.5443 29.5974C83.5063 30.5794 83.4304 31.9836 83.3924 32.7201L83.3165 34.0655L82.7215 34.0262C82.4051 33.9967 81.1392 33.9574 79.9114 33.9378L77.6835 33.8887L77.5316 34.6448C77.2785 35.8822 76.6962 37.6694 76.076 39.0344C75.7595 39.7316 75.5316 40.3208 75.5696 40.3502C75.5949 40.3699 76.5696 40.8707 77.7468 41.4403C78.9114 42.0196 79.8481 42.5401 79.8354 42.599C79.7848 42.7758 75.6962 47.725 75.5949 47.725C75.5443 47.725 74.6203 47.2831 73.5316 46.743C72.443 46.2029 71.5063 45.761 71.4557 45.761C71.4051 45.761 70.9747 46.1047 70.519 46.527C69.5316 47.4403 67.3924 49.0507 66.2785 49.7283L65.4937 50.2095L66.0506 51.0049C67.4557 53.0376 67.6962 53.4108 67.6329 53.4599C67.5316 53.5385 60.6456 56.3764 60.6203 56.347C60.6076 56.3273 60.1266 55.6301 59.557 54.7856L58.5063 53.2635L57.2911 53.5974C55.7215 54.0196 53.5696 54.4517 52.2405 54.6088L51.1899 54.7267L51.1646 56.455L51.1266 58.1833H49.7342H48.3418V53.3224V48.4615L48.7215 48.4321C48.9367 48.4223 49.7342 48.3437 50.4937 48.2553C60.3544 47.1948 68.4177 41.3224 70.4177 33.7316C71.3544 30.216 70.9114 26.3863 69.2152 23.1162C66.519 17.9214 60.9367 13.9444 54.0759 12.3339C52.6962 12.0098 50.0886 11.6268 48.9114 11.5679L48.3418 11.5385L48.3038 6.64812L48.2785 1.76759H49.7342H51.1899V4.59574ZM50.0127 13.5025C59.1392 14.5041 66.1772 19.6399 68.1772 26.7201C68.4304 27.6137 68.4557 28.0164 68.4557 30C68.4557 31.964 68.4177 32.3863 68.1772 33.2602C66.8481 38.0033 63.2532 41.9116 58 44.3372C55.3544 45.5548 52.3797 46.3011 48.9494 46.5859L48.4051 46.6252V44.7791V42.9231L49.0127 42.8642C50.3038 42.7365 52.4177 42.3044 53.5316 41.9411C58.7595 40.2029 62.2911 36.8445 63.481 32.4746C63.8354 31.198 63.8608 29.0475 63.557 27.7414C62.9241 25.0409 61.2278 22.5957 58.6456 20.6808C56.0759 18.766 52.8861 17.5483 49.481 17.1751L48.4051 17.0573V15.2013C48.4051 13.7872 48.443 13.3552 48.5696 13.3552C48.6456 13.3552 49.3038 13.4239 50.0127 13.5025ZM51 19.2962C56.3544 20.4845 60.3038 23.9018 61.2658 28.1931C61.557 29.4992 61.4557 31.4239 61.0127 32.7299C60.6329 33.8691 59.6709 35.4992 58.8228 36.4223C57.5823 37.7676 55.4937 39.1718 53.5949 39.9182C52.1392 40.4877 49.7468 41.0376 48.6962 41.0475H48.2785V29.9902V18.9231L49.0759 18.982C49.5063 19.0115 50.3797 19.1588 51 19.2962Z" fill="#33CC95"/>
<path d="M28.1738 0.0536566C24.2357 0.370353 20.8811 1.62724 18.3287 3.73525C16.9431 4.88328 16.1652 5.90264 15.5575 7.32778C15.1807 8.22838 15.1199 8.49559 15.0713 9.60403L15.0106 10.8708H14.1354C10.6714 10.8708 7.43836 12.2267 5.28703 14.5722C2.7103 17.4027 2.00534 21.0249 3.51249 23.6673C3.65834 23.9345 3.63403 23.9642 2.98985 24.5086C1.10592 26.092 0.133567 28.1605 0.0120232 30.8128C-0.121675 33.7224 0.862831 36.2164 2.80754 37.9385L3.50034 38.562L3.08709 39.5912C2.55229 40.8877 2.34567 42.0258 2.4429 43.1738C2.74676 46.7565 5.57874 49.6958 9.71123 50.735C10.8659 51.022 12.7255 51.1803 13.8559 51.0715L14.8039 50.9923L14.9376 51.3189C15.0106 51.497 15.1321 51.6455 15.2172 51.6455C15.3023 51.6455 15.4603 51.8929 15.5818 52.1898C15.91 53.0607 16.8337 54.4562 17.6116 55.3073C19.6778 57.534 22.7772 59.0581 26.7274 59.7806C27.8213 59.9785 28.3075 60.0082 30.3008 59.9983C32.4035 59.9884 32.7195 59.9687 33.8134 59.7311C36.4631 59.1472 38.2011 58.1971 39.2464 56.7423C40.0122 55.6834 39.9514 57.7518 39.9757 29.1996L40 3.10186L39.0398 2.53774C35.9404 0.706843 31.8079 -0.243246 28.1738 0.0536566ZM32.7924 2.14187C34.2267 2.45857 35.5758 2.91382 36.7183 3.46804L37.7757 3.98267V7.61478V11.2469L37.3868 11.524C35.1869 13.0382 30.4588 12.5929 27.9671 10.6432C26.9826 9.87124 26.5694 9.21806 26.4965 8.24818L26.4478 7.52571L25.5363 7.41685C24.1871 7.2486 24.2844 7.19912 24.2844 8.12941C24.2844 9.99001 25.3783 11.5537 27.4688 12.6819C29.4864 13.7805 31.2002 14.1763 33.8256 14.1763C35.6609 14.1763 36.1714 14.0972 37.5691 13.6023C37.7636 13.5231 37.7757 13.8102 37.7757 18.8872C37.7757 23.9642 37.7636 24.2512 37.5691 24.182C36.7062 23.8851 34.7858 23.4001 34.02 23.2814C32.1847 23.0141 30.0334 23.1527 28.5384 23.6376C27.5296 23.9642 26.3141 24.6669 25.5241 25.3795C24.807 26.0228 24.333 26.6364 22.996 28.586C21.7684 30.3872 20.4193 31.2977 19.2646 31.1097C18.1829 30.9217 17.6237 30.4466 16.226 28.5365C15.7884 27.9328 15.205 27.2401 14.9255 26.9728L14.415 26.5077L14.6095 26.0426C14.9862 25.1518 14.8404 24.2314 14.1841 23.4001L13.8073 22.9152L13.0294 23.5585L12.2393 24.2018L12.446 24.5481C12.7985 25.1617 12.446 25.9238 11.6438 26.2603C11.2792 26.4186 10.9996 26.379 10.6471 26.1316C10.4527 26.003 10.3554 26.0426 9.56538 26.5671L8.69026 27.1411L9.20075 27.5073C9.7477 27.9031 10.5985 28.1901 11.2184 28.1901C11.425 28.1901 11.899 28.1209 12.2637 28.0318L12.92 27.8735L13.2846 28.2198C13.4791 28.4079 14.0868 29.16 14.6095 29.8825C15.7641 31.4561 16.5299 32.1291 17.6845 32.5744C18.4259 32.8515 18.6326 32.8911 19.6049 32.8911C20.6016 32.8911 20.7717 32.8614 21.5253 32.5645C22.9717 31.9806 23.8954 31.0899 25.439 28.784C26.4357 27.2994 27.1285 26.5374 27.9793 26.0129C30.2522 24.6174 32.9261 24.5877 36.8885 25.9337L37.7757 26.2306V31.2581V36.2857L37.2653 36.1867C36.9736 36.1372 36.3658 36.1076 35.8918 36.1372C32.7681 36.3253 29.6323 38.7599 29.1218 41.3825C28.9152 42.4712 29.1097 43.4312 29.9483 45.5095C30.5439 47.0138 30.6411 47.3503 30.6533 48.0332C30.6654 49.7354 29.4864 50.8636 27.6754 50.8834C26.8611 50.8834 26.9462 50.7944 26.7274 51.9325C26.6545 52.2888 26.6302 52.5956 26.6545 52.6253C26.7882 52.7341 28.0644 52.744 28.6721 52.645C30.3129 52.3679 31.5284 51.5762 32.2698 50.3094C33.1571 48.7853 33.1085 47.5185 32.0753 44.9652C31.0787 42.5108 31.0301 41.6893 31.8444 40.4423C32.3549 39.6605 33.6676 38.6609 34.6885 38.2651C35.6609 37.8989 36.7183 37.8395 37.3868 38.1265L37.7757 38.2947L37.7514 46.7763L37.715 55.2578L37.4233 55.6932C35.9769 57.92 31.0908 58.8602 26.3506 57.8211C22.2667 56.9402 19.1309 54.7531 17.8547 51.9226C17.5144 51.1803 17.2713 50.3391 17.1133 49.3791C16.9796 48.5676 16.9796 48.5478 17.2956 48.1717C17.8061 47.5383 18.4259 47.093 20.6624 45.7371C21.817 45.0245 23.0568 44.1932 23.3971 43.8864C25.4998 42.0159 25.986 39.8881 24.9285 37.1467C24.6247 36.3352 23.5794 34.4251 23.4457 34.4251C23.4092 34.4251 22.9474 34.6032 22.4369 34.821L21.5132 35.2168L22.0358 36.1372C23.7374 39.1063 23.6159 41.0856 21.6347 42.7186C21.2579 43.0353 19.9695 43.8864 18.7906 44.599C15.9586 46.321 15.1807 47.0633 14.731 48.5082C14.6216 48.8447 14.4758 49.1515 14.3907 49.1911C14.3178 49.2307 13.6736 49.2703 12.9686 49.2703C10.5134 49.2703 8.73888 48.6962 7.07373 47.3404C4.75224 45.4699 4.07159 42.9363 5.17764 40.2147C5.84614 38.562 7.29251 37.889 10.1853 37.889C11.4736 37.889 12.3852 38.0968 14.1962 38.7896C15.0713 39.1261 15.8127 39.3834 15.8371 39.3537C15.8978 39.3042 16.384 37.8692 16.384 37.7306C16.384 37.5921 14.3056 36.7706 13.1023 36.4342C12.3487 36.2263 11.899 36.1669 10.5377 36.1274C8.45933 36.068 7.24389 36.2461 5.89475 36.7904L4.95886 37.1764L4.37545 36.642C2.90477 35.296 2.02965 32.8911 2.21197 30.6544C2.41859 27.9922 3.79204 25.9337 6.07707 24.8549C6.59971 24.6075 7.02511 24.3799 7.02511 24.3502C7.02511 24.3304 6.73341 24.0533 6.38093 23.7366C5.3235 22.8063 4.97102 22.0146 4.95886 20.5696C4.95886 18.2637 6.49032 15.7301 8.77535 14.2456C9.69908 13.6518 11.2792 13.0184 12.3123 12.8403C13.1388 12.7017 14.7188 12.672 15.5332 12.7809C16.0437 12.8502 16.1044 12.8997 16.5299 13.4737C16.7729 13.8102 17.3442 14.4534 17.8182 14.8889L18.669 15.6905L18.511 16.0369C18.1099 17.0068 16.5177 18.5408 15.1686 19.2534C14.8039 19.4513 14.4758 19.6294 14.4515 19.6393C14.3542 19.6987 15.1078 21.1832 15.2536 21.2327C15.4724 21.302 16.3354 20.8764 17.4171 20.1639C18.4624 19.481 19.7143 18.2538 20.2126 17.4225C20.4071 17.1157 20.5773 16.8485 20.5894 16.8287C20.6016 16.8089 20.9662 16.9573 21.4038 17.1553C22.2546 17.5412 24.0048 18.0559 24.7584 18.1548L25.2203 18.2142L25.3661 17.5907C25.439 17.2443 25.5363 16.8386 25.5727 16.6802C25.6213 16.4724 25.597 16.413 25.4147 16.413C24.9529 16.413 22.8137 15.7301 21.9629 15.3244C20.8204 14.78 19.2889 13.5825 18.5718 12.6819C17.2713 11.0688 16.9796 9.56444 17.6481 7.96117C18.8757 5.04162 22.206 2.86434 26.7152 2.0528C28.1495 1.79549 31.4433 1.84497 32.7924 2.14187Z" fill="#33CC95"/>
</svg>
